<?xml version="1.0" standalone="no"?>
<!DOCTYPE svg PUBLIC "-//W3C//DTD SVG 20010904//EN"
 "http://www.w3.org/TR/2001/REC-SVG-20010904/DTD/svg10.dtd">
<svg version="1.0" xmlns="http://www.w3.org/2000/svg"
 width="700.000000pt" height="700.000000pt" viewBox="0 0 700.000000 700.000000"
 preserveAspectRatio="xMidYMid meet">
<metadata>
Created by potrace 1.14, written by Peter Selinger 2001-2017
</metadata>
<g transform="translate(0.000000,700.000000) scale(0.100000,-0.100000)"
fill="#000000" stroke="none">
<path d="M3410 6558 c-175 -15 -355 -82 -500 -187 -31 -23 -129 -111 -151
-136 -44 -49 -96 -126 -132 -194 -24 -45 -47 -78 -51 -74 -4 4 -4 0 -1 -9 4
-9 1 -27 -6 -39 -13 -24 -31 -89 -44 -159 -3 -14 -7 -36 -10 -50 -3 -14 -5
-64 -6 -112 0 -61 -4 -88 -12 -88 -8 0 -7 -3 2 -9 7 -5 11 -13 7 -19 -3 -6 0
-13 6 -15 9 -4 9 -6 1 -6 -6 -1 -9 -9 -6 -20 5 -19 -21 -36 -38 -25 -5 3 -8 0
-7 -8 4 -16 -1 -16 -82 8 -36 10 -71 25 -78 34 -8 8 -11 9 -7 3 6 -13 -7 -12
-100 8 -43 9 -283 6 -325 -5 -14 -3 -34 -8 -45 -10 -68 -13 -253 -89 -290
-118 -5 -4 -41 -31 -80 -60 -103 -77 -202 -187 -255 -283 -12 -22 -26 -44 -30
-50 -4 -5 -21 -46 -38 -90 -80 -212 -89 -446 -25 -650 33 -103 62 -165 117
-249 25 -38 46 -70 46 -72 0 -6 109 -115 150 -149 25 -21 44 -42 42 -47 -1 -5
2 -7 8 -3 5 3 25 -5 43 -19 35 -27 199 -106 219 -106 6 0 17 -8 25 -17 8 -10
12 -12 8 -5 -5 10 0 11 22 6 36 -9 73 -33 74 -48 0 -6 2 -19 4 -28 4 -22 -23
-60 -37 -52 -7 4 -8 2 -4 -4 4 -7 -13 -40 -36 -74 -70 -100 -129 -250 -145
-363 -3 -22 -10 -43 -17 -47 -8 -6 -7 -8 2 -8 7 0 11 -4 7 -10 -7 -11 -7 -205
0 -240 3 -14 9 -48 14 -76 31 -165 131 -352 260 -485 125 -128 329 -240 496
-274 76 -15 96 -17 190 -19 110 -3 225 13 325 45 78 25 217 97 271 140 21 17
39 28 39 24 0 -3 11 7 25 22 l24 28 0 -590 0 -590 -33 70 c-18 39 -44 88 -58
110 -14 22 -27 45 -28 50 -2 6 -8 15 -14 21 -6 6 -31 35 -56 65 -25 29 -58 66
-75 82 -16 16 -29 33 -28 38 2 5 -3 9 -10 9 -6 1 -41 23 -77 50 -51 39 -222
139 -250 146 -48 11 -98 29 -95 33 2 3 -7 7 -18 7 -12 1 -47 6 -77 12 -30 6
-77 13 -105 17 -54 6 -70 7 -378 6 -267 -1 -251 10 -244 -180 5 -146 24 -237
74 -353 44 -102 117 -213 185 -281 10 -10 16 -23 12 -28 -3 -5 -1 -8 4 -7 6 2
30 -13 54 -33 59 -49 146 -109 157 -109 5 0 11 -4 13 -8 4 -11 183 -81 223
-88 11 -2 45 -8 75 -13 34 -7 379 -11 905 -11 909 -1 930 0 1085 50 202 65
430 228 540 385 14 19 33 45 42 57 49 58 144 282 162 380 27 150 29 195 5 219
-20 20 -29 21 -402 16 -210 -3 -395 -8 -412 -11 -212 -47 -354 -123 -503 -268
-71 -70 -159 -196 -193 -278 -12 -30 -26 -59 -31 -65 -4 -5 -8 233 -8 529 l0
538 53 -38 c28 -21 54 -41 57 -44 13 -14 174 -91 222 -105 121 -38 192 -49
323 -48 113 0 142 3 240 28 370 94 648 392 726 780 15 74 14 304 -1 364 -6 24
-8 51 -6 58 3 8 2 12 -3 8 -5 -3 -12 9 -16 25 -4 17 -18 58 -31 90 -13 32 -22
65 -21 72 2 7 2 9 -1 5 -6 -11 -31 25 -32 46 0 9 -5 17 -11 17 -6 0 -9 7 -5
15 3 8 0 14 -7 12 -7 -1 -11 6 -11 15 1 10 -2 16 -6 13 -9 -6 -43 43 -43 62 0
6 -5 11 -11 10 -6 -1 -11 10 -11 26 -1 15 3 27 8 27 4 0 6 4 2 9 -6 11 27 26
130 61 187 63 380 204 481 352 16 23 32 45 35 48 24 19 110 219 125 289 3 14
8 29 11 34 15 24 22 258 11 347 -13 98 -42 190 -95 298 -58 120 -113 195 -202
280 -31 29 -55 57 -53 63 1 6 -2 8 -8 4 -10 -6 -74 36 -97 64 -7 8 -13 12 -13
8 0 -4 -9 -3 -20 3 -11 6 -17 16 -14 22 4 7 3 8 -5 4 -6 -4 -39 6 -74 22 -34
16 -87 35 -117 43 -30 7 -57 16 -60 19 -5 5 -40 10 -74 11 -11 0 -28 5 -39 10
-11 6 -17 7 -14 2 3 -4 -53 -8 -124 -7 -71 1 -129 -2 -129 -5 0 -4 -14 -8 -30
-9 -17 -1 -64 -13 -105 -26 -41 -13 -77 -21 -80 -18 -3 3 -5 0 -5 -6 0 -7 -9
-12 -20 -12 -11 0 -20 4 -20 10 0 5 -3 9 -7 9 -24 -4 -35 3 -29 17 4 10 2 13
-6 8 -7 -5 -9 -2 -5 9 3 9 1 18 -6 21 -7 2 -7 5 -2 5 12 1 12 172 1 190 -4 6
-2 11 3 11 8 0 8 6 2 18 -10 18 -36 158 -34 179 0 7 -3 11 -7 8 -4 -3 -10 8
-13 24 -7 35 -55 140 -75 164 -8 9 -12 17 -8 17 4 0 2 6 -4 13 -47 55 -108
146 -102 152 4 5 2 5 -4 2 -6 -3 -26 10 -45 29 -38 40 -140 122 -179 143 -208
115 -389 156 -600 139z"/>
<path d="M4536 5458 c3 -5 10 -6 15 -3 13 9 11 12 -6 12 -8 0 -12 -4 -9 -9z"/>
<path d="M4635 5461 c-3 -5 -2 -12 3 -15 5 -3 9 1 9 9 0 17 -3 19 -12 6z"/>
<path d="M2370 5440 c0 -5 5 -10 11 -10 5 0 7 5 4 10 -3 6 -8 10 -11 10 -2 0
-4 -4 -4 -10z"/>
<path d="M2460 5446 c0 -2 7 -9 15 -16 9 -7 15 -8 15 -2 0 5 -7 12 -15 16 -8
3 -15 4 -15 2z"/>
<path d="M2418 5418 c5 -5 16 -8 23 -6 8 3 3 7 -10 11 -17 4 -21 3 -13 -5z"/>
<path d="M1796 3473 c-6 -14 -5 -15 5 -6 7 7 10 15 7 18 -3 3 -9 -2 -12 -12z"/>
<path d="M1816 3433 c-6 -14 -5 -15 5 -6 7 7 10 15 7 18 -3 3 -9 -2 -12 -12z"/>
<path d="M1667 3319 c7 -7 15 -10 18 -7 3 3 -2 9 -12 12 -14 6 -15 5 -6 -5z"/>
</g>
</svg>
